
        <svg xmlns="http://www.w3.org/2000/svg" xmlns:xlink="http://www.w3.org/1999/xlink" version="1.1" width="3324.324324324325" 
        height="1378.3783783783786" viewBox="0 0 3324.324324324325 1378.3783783783786">
			
			<g transform="scale(16.216216216216218) translate(10, 10)">
				<defs id="SvgjsDefs2224"><linearGradient id="SvgjsLinearGradient2229"><stop id="SvgjsStop2230" stop-color="#2d388a" offset="0"></stop><stop id="SvgjsStop2231" stop-color="#00aeef" offset="1"></stop></linearGradient></defs><g id="SvgjsG2225" featureKey="2ou6gm-0" transform="matrix(0.8125,0,0,0.8125,-8.125,-8.125)" fill="url(#SvgjsLinearGradient2229)"><path xmlns="http://www.w3.org/2000/svg" d="M35,65.833c0-8.587,3.535-16.36,9.219-21.956c-3.063-1.406-6.458-2.21-10.052-2.21C20.82,41.667,10,52.487,10,65.833  C10,79.18,20.82,90,34.167,90c3.594,0,6.988-0.804,10.052-2.21C38.535,82.194,35,74.421,35,65.833z"></path><path xmlns="http://www.w3.org/2000/svg" d="M65.833,65c-8.587,0-16.36-3.535-21.956-9.222c-1.406,3.066-2.21,6.461-2.21,10.055C41.667,79.18,52.487,90,65.833,90  C79.18,90,90,79.18,90,65.833c0-3.594-0.804-6.988-2.21-10.055C82.194,61.465,74.421,65,65.833,65z"></path><path xmlns="http://www.w3.org/2000/svg" d="M65.833,10c-3.594,0-6.988,0.804-10.055,2.21C61.465,17.806,65,25.579,65,34.167c0,8.587-3.535,16.36-9.222,21.956  c3.066,1.406,6.461,2.21,10.055,2.21C79.18,58.333,90,47.513,90,34.167C90,20.82,79.18,10,65.833,10z"></path><path xmlns="http://www.w3.org/2000/svg" d="M34.167,35c8.587,0,16.36,3.535,21.956,9.219c1.406-3.063,2.21-6.458,2.21-10.052C58.333,20.82,47.513,10,34.167,10  C20.82,10,10,20.82,10,34.167c0,3.594,0.804,6.988,2.21,10.052C17.806,38.535,25.579,35,34.167,35z"></path></g><g id="SvgjsG2226" featureKey="kZnDdN-0" transform="matrix(2.1052632331848145,0,0,2.1052632331848145,84.15789346457179,5.368420038196769)" fill="#364f6b"><path d="M12.52 6 l1.76 0 l-6.26 14 l-1.38 0 l-6.24 -14 l1.76 0 l5.18 11.82 z M17.54 18.44 l6.66 0 l0 1.56 l-7.06 0 l-1.26 0 l0 -14 l1.66 0 l6.48 0 l0 1.56 l-6.48 0 l0 4.64 l5.04 0 l0 1.52 l-5.04 0 l0 4.72 z M36.58 20 l-1.8 0 l-3.54 -5.04 l-0.38 0 l-2.9 0 l0 5.04 l-1.66 0 l0 -14 l4.56 0 c3.14 0 4.96 1.92 4.96 4.52 c0 2 -1.08 3.56 -3 4.16 z M27.96 7.5600000000000005 l0 5.92 l2.86 0 c2.02 0 3.34 -1.04 3.34 -2.96 c0 -1.94 -1.32 -2.96 -3.34 -2.96 l-2.86 0 z M42.94 6 c3.14 0 4.96 1.92 4.96 4.52 s-1.82 4.44 -4.96 4.44 l-2.9 0 l0 5.04 l-1.66 0 l0 -14 l4.56 0 z M42.9 13.48 c2.02 0 3.34 -1.04 3.34 -2.96 c0 -1.94 -1.32 -2.96 -3.34 -2.96 l-2.86 0 l0 5.92 l2.86 0 z"></path></g>
			</g>
		</svg>
	