<svg id="eATmvnNVBtL1" xmlns="http://www.w3.org/2000/svg" xmlns:xlink="http://www.w3.org/1999/xlink" viewBox="0 0 1300 1300" shape-rendering="geometricPrecision" text-rendering="geometricPrecision"><defs><linearGradient id="eATmvnNVBtL3-fill" x1="0" y1="0" x2="1" y2="0" spreadMethod="pad" gradientUnits="objectBoundingBox" gradientTransform="translate(0 0)"><stop id="eATmvnNVBtL3-fill-0" offset="0%" stop-color="#8a2d2d"/><stop id="eATmvnNVBtL3-fill-1" offset="100%" stop-color="#ef0000"/></linearGradient><linearGradient id="eATmvnNVBtL4-fill" x1="0" y1="0" x2="1" y2="0" spreadMethod="pad" gradientUnits="objectBoundingBox" gradientTransform="translate(0 0)"><stop id="eATmvnNVBtL4-fill-0" offset="0%" stop-color="#8a2d2d"/><stop id="eATmvnNVBtL4-fill-1" offset="100%" stop-color="#ef0000"/></linearGradient><linearGradient id="eATmvnNVBtL5-fill" x1="0" y1="0" x2="1" y2="0" spreadMethod="pad" gradientUnits="objectBoundingBox" gradientTransform="translate(0 0)"><stop id="eATmvnNVBtL5-fill-0" offset="0%" stop-color="#8a2d2d"/><stop id="eATmvnNVBtL5-fill-1" offset="100%" stop-color="#ef0000"/></linearGradient><linearGradient id="eATmvnNVBtL6-fill" x1="0" y1="0" x2="1" y2="0" spreadMethod="pad" gradientUnits="objectBoundingBox" gradientTransform="translate(0 0)"><stop id="eATmvnNVBtL6-fill-0" offset="0%" stop-color="#8a2d2d"/><stop id="eATmvnNVBtL6-fill-1" offset="100%" stop-color="#ef0000"/></linearGradient></defs><g transform="matrix(15 0 0 15-101-100)"><path d="M35,65.833c0-8.587,3.535-16.36,9.219-21.956-3.063-1.406-6.458-2.21-10.052-2.21C20.82,41.667,10,52.487,10,65.833C10,79.18,20.82,90,34.167,90c3.594,0,6.988-.804,10.052-2.21C38.535,82.194,35,74.421,35,65.833Z" fill="url(#eATmvnNVBtL3-fill)"/><path d="M65.833,65c-8.587,0-16.36-3.535-21.956-9.222-1.406,3.066-2.21,6.461-2.21,10.055C41.667,79.18,52.487,90,65.833,90C79.18,90,90,79.18,90,65.833c0-3.594-.804-6.988-2.21-10.055C82.194,61.465,74.421,65,65.833,65Z" fill="url(#eATmvnNVBtL4-fill)"/><path d="M65.833,10c-3.594,0-6.988.804-10.055,2.21C61.465,17.806,65,25.579,65,34.167c0,8.587-3.535,16.36-9.222,21.956c3.066,1.406,6.461,2.21,10.055,2.21C79.18,58.333,90,47.513,90,34.167C90,20.82,79.18,10,65.833,10Z" fill="url(#eATmvnNVBtL5-fill)"/><path d="M34.167,35c8.587,0,16.36,3.535,21.956,9.219c1.406-3.063,2.21-6.458,2.21-10.052C58.333,20.82,47.513,10,34.167,10C20.82,10,10,20.82,10,34.167c0,3.594.804,6.988,2.21,10.052C17.806,38.535,25.579,35,34.167,35Z" transform="translate(0-.46893)" fill="url(#eATmvnNVBtL6-fill)"/></g></svg>
